HIERARCHY
ROOT Hips
{
	OFFSET -3.958830 18.904000 13.208200
	CHANNELS 6 Xposition Yposition Zposition Zrotation Yrotation Xrotation 
	JOINT LHipJoint
	{
		OFFSET 0.000000 0.000000 0.000000
		CHANNELS 3 Zrotation Yrotation Xrotation
		JOINT LeftUpLeg
		{
			OFFSET 1.800000 -1.400000 0.085000
			CHANNELS 3 Zrotation Yrotation Xrotation
			JOINT LeftLeg
			{
				OFFSET 2.215000 -6.000000 0.000000
				CHANNELS 3 Zrotation Yrotation Xrotation
				JOINT LeftFoot
				{
					OFFSET 2.500000 -6.900000 0.000000
					CHANNELS 3 Zrotation Yrotation Xrotation
					JOINT LeftToeBase
					{
						OFFSET 0.200000 -0.500000 1.950000
						CHANNELS 3 Zrotation Yrotation Xrotation
						End Site
						{
							OFFSET 0.000000 0.000000 0.000000
						}
					}
				}
			}
		}
	}
	JOINT RHipJoint
	{
		OFFSET 0.000000 0.000000 0.000000
		CHANNELS 3 Zrotation Yrotation Xrotation
		JOINT RightUpLeg
		{
			OFFSET -1.800000 -1.400000 0.085000
			CHANNELS 3 Zrotation Yrotation Xrotation
			JOINT RightLeg
			{
				OFFSET -2.215000 -6.000000 0.000000
				CHANNELS 3 Zrotation Yrotation Xrotation
				JOINT RightFoot
				{
					OFFSET -2.500000 -6.900000 0.000000
					CHANNELS 3 Zrotation Yrotation Xrotation
					JOINT RightToeBase
					{
						OFFSET -0.200000 -0.500000 1.950000
						CHANNELS 3 Zrotation Yrotation Xrotation
						End Site
						{
							OFFSET 0.000000 0.000000 0.000000
						}
					}
				}
			}
		}
	}
	JOINT LowerBack
	{
		OFFSET 0.000000 0.000000 0.000000
		CHANNELS 3 Zrotation Yrotation Xrotation
		JOINT Spine
		{
			OFFSET -0.087000 1.940000 -0.288900
			CHANNELS 3 Zrotation Yrotation Xrotation
			JOINT Spine1
			{
				OFFSET 0.000000 1.950000 0.060000
				CHANNELS 3 Zrotation Yrotation Xrotation
				JOINT Neck
				{
					OFFSET 0.000000 0.000000 0.000000
					CHANNELS 3 Zrotation Yrotation Xrotation
					JOINT Neck1
					{
						OFFSET 0.000000 1.600000 0.340000
						CHANNELS 3 Zrotation Yrotation Xrotation
						JOINT Head
						{
							OFFSET 0.000000 1.667000 -0.240000
							CHANNELS 3 Zrotation Yrotation Xrotation
							End Site
							{
								OFFSET 0.000000 0.000000 0.000000
							}
						}
					}
				}
				JOINT LeftShoulder
				{
					OFFSET 0.000000 0.000000 0.000000
					CHANNELS 3 Zrotation Yrotation Xrotation
					JOINT LeftArm
					{
						OFFSET 2.700000 1.550000 -0.730000
						CHANNELS 3 Zrotation Yrotation Xrotation
						JOINT LeftForeArm
						{
							OFFSET 5.450000 0.000000 0.000000
							CHANNELS 3 Zrotation Yrotation Xrotation
							JOINT LeftHand
							{
								OFFSET 3.450000 0.000000 0.000000
								CHANNELS 3 Zrotation Yrotation Xrotation
								JOINT LeftHandIndex1
								{
									OFFSET 0.750000 0.000000 0.000000
									CHANNELS 3 Zrotation Yrotation Xrotation
									End Site
									{
										OFFSET 0.000000 0.000000 0.000000
									}
								}
							}
						}
					}
				}
				JOINT RightShoulder
				{
					OFFSET 0.000000 0.000000 0.000000
					CHANNELS 3 Zrotation Yrotation Xrotation
					JOINT RightArm
					{
						OFFSET -2.700000 1.550000 -0.730000
						CHANNELS 3 Zrotation Yrotation Xrotation
						JOINT RightForeArm
						{
							OFFSET -5.450000 0.000000 0.000000
							CHANNELS 3 Zrotation Yrotation Xrotation
							JOINT RightHand
							{
								OFFSET -3.450000 0.000000 0.000000
								CHANNELS 3 Zrotation Yrotation Xrotation
								JOINT RightHandIndex1
								{
									OFFSET -0.750000 0.000000 0.000000
									CHANNELS 3 Zrotation Yrotation Xrotation
									End Site
									{
										OFFSET 0.000000 0.000000 0.000000
									}
								}
							}
						}
					}
				}
			}
		}
	}
}
MOTION
Frames: 12
Frame Time: 0.016667
1.321030 17.049560 -9.264400 3.981761 -34.737969 -22.257415 -15.560426 13.992383 4.176421 -0.973692 1.232025 -49.838726 14.182514 10.095402 73.967491 1.067632 12.103165 -0.017049 1.170690 1.065780 0.869330 17.969652 -9.519611 2.140050 -9.165560 8.486553 3.624686 12.322610 -9.111599 36.837466 -1.454942 -6.549486 1.893486 0.471940 -0.812500 0.152320 -2.078265 -5.181258 -8.442392 9.311722 1.992248 70.420044 -3.586179 10.014029 -0.095781 8.044272 -13.160307 -11.429520 -31.551964 23.087193 60.242577 -10.794050 -8.067790 -40.080170 -37.544985 -5.337633 -0.908900 -35.567652 20.175366 -14.731376 -52.916094 19.604410 -20.150196 -2.592882 2.814581 0.928280 -0.775280 0.758860 0.086310 19.948966 28.367658 5.597565 32.328984 34.800824 -1.490384 -141.924433 39.718810 -113.385970 2.073865 -1.479506 0.303290 0.200630 -0.336300 -0.179350 
1.304080 17.074910 -9.262970 6.190692 -34.360535 -23.545227 -15.623758 13.737425 4.532425 -1.165972 -0.078739 -53.063437 15.365892 9.289509 76.045015 1.086232 12.387692 -0.110787 1.174560 1.068070 0.870420 17.953138 -9.463498 1.906187 -11.012242 8.002794 4.069487 11.615085 -9.083857 36.251682 -1.426997 -6.490230 1.900827 0.477760 -0.801110 0.171580 -1.969888 -5.211004 -8.539845 6.079431 3.762122 70.436720 -1.955587 9.863567 0.835080 7.124162 -12.773198 -11.479480 -31.298744 23.240034 60.356471 -10.105530 -7.539730 -40.604990 -37.472913 -6.777759 -0.003510 -36.122577 19.694600 -14.926477 -53.146242 17.831132 -19.431840 -2.634679 2.841089 0.949290 -0.764830 0.766090 0.078970 21.879231 29.433923 5.729120 31.629956 34.276093 -2.294962 -143.047502 40.403690 -116.333203 2.057390 -1.477334 0.298070 0.207000 -0.319250 -0.186970 
1.276810 17.119090 -9.251030 10.358273 -31.796863 -25.409269 -15.782743 13.021036 5.449041 -1.587175 -4.153348 -60.410415 18.758482 6.306602 79.885801 1.141460 12.842488 -0.241325 1.154830 1.047160 0.876940 17.916864 -9.280840 1.445435 -15.252280 6.615360 5.093396 10.947417 -9.350520 33.814932 -1.356226 -6.335711 1.929737 0.471330 -0.783650 0.183960 -1.820566 -5.177983 -8.805338 -0.224376 6.433666 69.789587 1.202093 8.571562 3.351090 5.105450 -11.935499 -12.181618 -30.014716 22.476430 59.677989 -9.133170 -5.941850 -41.277780 -36.017244 -10.911356 2.767620 -37.966318 19.230922 -15.934925 -53.834624 12.536449 -17.306259 -2.734438 2.891814 0.977340 -0.742970 0.767930 0.050780 25.079806 32.190984 6.453298 30.880264 32.954679 -4.541181 -145.573441 41.021765 -123.216454 2.045092 -1.463801 0.275390 0.215770 -0.290170 -0.211240 
1.267880 17.146510 -9.178630 15.251043 -33.886451 -28.115115 -15.943585 11.847979 6.674075 4.423174 -4.111702 -73.227990 18.417338 7.537032 83.879242 1.205972 13.471558 -0.421494 1.100470 0.981820 0.852640 17.989551 -9.014070 0.865769 -19.560542 5.898292 6.476310 8.666093 -8.835452 31.117845 -1.238748 -6.114404 1.992929 0.439390 -0.721040 0.211620 -1.750131 -4.616997 -9.228695 -6.048179 10.559617 68.320943 3.737262 8.958963 5.536639 2.453459 -11.482598 -11.961150 -28.636797 21.144402 57.108171 -8.084030 -3.270670 -39.782010 -33.686486 -12.105861 4.097056 -39.205914 17.648013 -15.743798 -55.619524 8.624408 -15.376443 -2.843876 2.970518 0.955610 -0.674730 0.727650 0.036740 27.988915 32.599055 6.900664 31.643687 32.006717 -5.511220 -148.375889 42.523463 -131.087669 2.048411 -1.506907 0.250890 0.187360 -0.264350 -0.225370 
1.311460 17.219160 -9.061200 16.689549 -36.108631 -28.623890 -15.948734 10.987727 7.433735 11.041343 -1.920848 -77.693498 13.871258 12.572428 86.759949 1.301621 14.122648 -0.592177 1.064350 0.936150 0.854110 18.112658 -8.980458 0.630785 -21.100060 5.650940 5.671378 7.784426 -8.677237 30.539573 -1.184845 -6.002646 2.024592 0.419970 -0.696480 0.207280 -2.013382 -3.703844 -9.469167 -6.273826 10.098070 67.707722 2.209349 8.400473 6.341054 1.563467 -10.932681 -12.107457 -28.256679 20.867468 56.821867 -8.355110 -2.252790 -38.976690 -32.776375 -13.040815 4.385197 -37.466788 15.829395 -14.703887 -56.700941 6.427951 -14.053908 -2.867554 2.974420 0.953150 -0.647480 0.709580 0.020190 28.824785 31.554526 7.375477 35.289926 30.334596 -6.524211 -150.724887 45.179113 -140.156113 2.074826 -1.506084 0.224730 0.196900 -0.247800 -0.241800 
1.363410 17.294370 -8.980670 17.855337 -37.962519 -27.347105 -15.976552 10.364578 8.075244 16.355125 0.201027 -80.580531 8.744387 16.992903 84.832554 1.387899 14.302793 -0.616333 1.063640 0.952090 0.857380 18.200561 -8.974256 0.380199 -21.676578 5.645737 2.549694 6.122619 -8.111308 31.871834 -1.114647 -5.794600 2.098449 0.393130 -0.694440 0.218700 -2.174393 -3.063313 -9.629274 -7.238338 10.102579 65.915592 1.870837 7.918975 6.791251 0.638042 -10.710753 -12.520744 -28.179655 20.633240 55.407643 -8.836330 -0.893760 -38.001380 -30.224695 -13.549939 4.874386 -37.669549 14.004985 -14.387786 -57.175354 1.861843 -11.233321 -2.886598 3.059039 0.901080 -0.630860 0.714000 0.040560 28.288590 30.792170 7.847133 38.817857 28.224685 -7.962590 -151.960002 47.871648 -146.884291 2.140108 -1.545377 0.267130 0.159430 -0.285720 -0.218560 
1.396110 17.392400 -8.939770 18.958964 -37.945510 -25.413938 -16.003142 10.250089 8.251244 18.329945 -0.029444 -79.297753 3.076936 21.217860 82.224330 1.501676 14.664791 -0.708396 1.042280 0.934540 0.859480 18.196745 -8.929509 0.344498 -22.294577 6.219651 -2.251118 6.135910 -8.210332 34.739204 -1.076959 -5.793283 2.068903 0.354940 -0.721010 0.229030 -2.172177 -3.010766 -9.661063 -9.492868 10.640729 63.905983 2.415173 6.911589 6.308221 0.303735 -10.108887 -12.992111 -27.408958 20.517993 55.864511 -10.230030 0.347850 -38.380520 -29.353207 -14.526152 5.433430 -38.666376 13.472112 -14.544320 -52.881446 -2.867883 -8.066759 -2.883747 3.070537 0.898450 -0.638170 0.732490 0.029250 28.439177 30.330249 8.258407 41.815948 25.491446 -9.874608 -154.210868 52.690638 -155.706379 2.181933 -1.561017 0.288780 0.122910 -0.291880 -0.221790 
1.442600 17.487930 -8.900540 19.189405 -39.519285 -22.885236 -15.998847 10.114960 8.391582 19.927536 0.403001 -78.215519 -0.679723 25.101035 82.629265 1.730185 15.349714 -0.848949 1.014880 0.907740 0.839960 18.231095 -8.890837 0.401514 -21.151373 6.819201 -7.542470 5.092232 -7.635103 37.220623 -1.028983 -5.625204 2.120054 0.321810 -0.715660 0.224820 -2.282674 -2.719465 -9.692230 -10.102814 10.644098 62.396800 2.036691 6.408851 4.379482 0.096470 -10.018160 -12.880205 -28.228975 20.836823 55.234932 -10.477020 0.840860 -39.129210 -29.965905 -14.234075 5.135121 -39.989849 12.558535 -13.869179 -45.257248 -4.593549 -6.148093 -2.874358 3.029146 0.900540 -0.646690 0.733670 0.030210 29.637059 29.050791 8.158154 43.724793 22.783977 -11.329999 -158.743731 58.177802 -165.780807 2.177863 -1.571979 0.290880 0.122150 -0.286800 -0.214130 
1.524810 17.557160 -8.861660 18.691554 -40.160023 -19.127458 -15.991846 9.954346 8.466233 19.609733 -1.189986 -78.425834 -2.917731 27.424201 83.509602 1.914130 15.963827 -0.953552 0.976930 0.859220 0.810590 18.247139 -8.794991 0.650955 -20.135018 7.164239 -13.211261 5.129421 -7.552074 38.442396 -0.974468 -5.478859 2.169765 0.300660 -0.670460 0.213010 -2.498694 -2.402359 -9.715900 -9.303396 9.168678 60.462533 0.936784 5.210369 3.296931 -0.027825 -10.248867 -12.867832 -29.163150 20.981612 52.979224 -10.051150 1.147050 -39.191900 -28.864142 -14.127781 5.017288 -41.445168 10.948219 -13.115697 -39.635250 -6.239291 -4.772726 -2.917335 2.979455 0.901570 -0.629110 0.705090 0.035020 28.954806 28.061985 7.929488 46.322356 21.789162 -12.345065 -161.533793 63.911240 -171.578867 2.156006 -1.535304 0.259870 0.150180 -0.266150 -0.213550 
1.585970 17.597560 -8.789500 16.494874 -40.964125 -15.350614 -15.916963 10.130186 8.060633 17.244726 -3.474313 -74.747672 -1.088881 25.621995 83.642090 1.889232 15.748512 -0.891099 0.958710 0.833250 0.794800 18.249047 -8.771354 1.154353 -18.126749 7.906712 -18.030630 5.989265 -8.096962 40.834856 -1.029471 -5.673692 2.106454 0.276250 -0.672470 0.210640 -2.767467 -2.205803 -9.631913 -7.281263 6.938764 59.184922 -0.423877 4.380557 1.481845 0.201626 -10.142995 -13.050462 -30.028741 21.597914 52.273506 -10.233160 1.541840 -39.433150 -28.743675 -14.198649 5.057448 -41.882204 10.520881 -12.716135 -34.703815 -8.173082 -3.681187 -2.907137 2.955555 0.917120 -0.639610 0.707680 0.036840 28.596389 26.903954 7.769845 49.414033 19.197858 -15.065833 -168.502596 70.276490 177.759652 2.129292 -1.471365 0.256110 0.146660 -0.259490 -0.215290 
1.653280 17.599350 -8.719240 14.122438 -42.123266 -11.646436 -15.882274 10.400240 7.607576 14.916132 -5.259048 -70.703981 1.164875 22.912472 83.039655 1.801444 15.267772 -0.760506 0.930550 0.793460 0.799600 18.222909 -8.685742 1.627028 -15.637487 8.518705 -21.996270 6.405246 -8.374717 42.219004 -1.067502 -5.739368 2.095225 0.241510 -0.680990 0.211870 -2.872882 -2.321609 -9.557603 -6.131706 5.292040 57.458403 -1.124648 3.624369 -0.329291 0.725652 -9.909761 -12.671820 -29.880160 21.470147 51.662426 -12.057190 2.455160 -39.611420 -29.069188 -13.570905 4.890481 -42.908387 9.666437 -11.787137 -27.515141 -9.485323 -2.706218 -2.917585 2.910667 0.924030 -0.637110 0.710030 0.027580 27.984901 25.316662 7.021284 51.689406 17.444477 -18.642957 167.529992 78.111762 150.970512 2.076399 -1.098957 0.250550 0.134060 -0.255540 -0.230130 
1.709760 17.538200 -8.634610 10.763680 -42.414587 -6.844506 -15.827047 10.755919 6.926384 11.108775 -6.849611 -65.516901 4.563760 18.149594 79.923857 1.548135 14.133139 -0.466418 0.878980 0.727870 0.788600 18.195375 -8.546530 2.329788 -13.513214 9.829532 -26.454230 8.552323 -9.527794 43.960547 -1.150591 -6.102403 1.989660 0.197110 -0.675810 0.218680 -3.030138 -2.485677 -9.465577 -4.033505 2.807655 54.784427 -2.856023 2.333763 -2.178967 1.716735 -9.280759 -11.932710 -28.210386 20.887710 51.128990 -14.253700 3.948090 -38.688660 -29.176797 -11.783333 4.345581 -43.937971 9.474046 -10.910886 -20.306033 -9.722310 -2.157502 -2.965980 2.855515 0.920480 -0.609940 0.696960 0.012630 26.020231 22.175009 5.253680 56.344661 17.157064 -13.832076 93.533106 86.723027 71.596699 4.651650 4.530544 0.235860 0.107730 -0.239440 -0.251030 
